<?xml version="1.0" encoding="utf-8"?>
<!-- Generator: Adobe Illustrator 16.0.0, SVG Export Plug-In . SVG Version: 6.00 Build 0)  -->
<!DOCTYPE svg PUBLIC "-//W3C//DTD SVG 1.1//EN" "http://www.w3.org/Graphics/SVG/1.1/DTD/svg11.dtd">
<svg version="1.1" id="Capa_1" xmlns="http://www.w3.org/2000/svg"  x="0px" y="0px"
	 width="407.979px" height="162.703px" viewBox="0 0 407.979 162.703" enable-background="new 0 0 407.979 162.703"
	 xml:space="preserve">
<g>
	<path fill="#0080B3" d="M45.452,35.156c-2.765,0-5.176,0.973-7.221,2.918c-1.946,1.949-2.917,4.303-2.917,7.069
		c0,2.762,0.971,5.119,2.917,7.063c2.044,1.949,4.456,2.918,7.221,2.918h39.936c8.294,0,15.409,2.921,21.35,8.757
		c5.836,5.835,8.757,12.903,8.757,21.196c0,8.296-2.921,15.414-8.757,21.353c-5.941,5.839-13.056,8.757-21.35,8.757H15.345v-19.97
		h70.043c2.762,0,5.125-0.971,7.068-2.92c1.939-2.047,2.917-4.453,2.917-7.22c0-2.765-0.978-5.118-2.917-7.066
		c-1.944-1.943-4.306-2.914-7.068-2.914H45.452c-8.296,0-15.419-2.921-21.357-8.76c-5.836-5.838-8.75-12.902-8.75-21.194
		c0-8.3,2.914-15.413,8.75-21.354c5.938-5.838,13.061-8.755,21.357-8.755h91.195l-19.701,20.122H45.452z"/>
	<path fill="#0080B3" d="M227.321,15.034c13.82,0,25.595,4.917,35.325,14.745c9.833,9.732,14.755,21.508,14.755,35.333v50.072
		h-20.125V65.112c0-8.297-2.922-15.364-8.752-21.202c-5.846-5.832-12.907-8.754-21.203-8.754c-8.292,0-15.361,2.922-21.196,8.754
		c-5.941,5.838-8.914,12.905-8.914,21.202v50.072h-19.965V65.112c0-13.825,4.857-25.601,14.593-35.333
		C201.676,19.95,213.497,15.034,227.321,15.034"/>
	<path fill="#0080B3" d="M344.368,15.034c13.824,0,25.601,4.917,35.326,14.745c9.833,9.732,14.75,21.508,14.75,35.333v50.075
		h-50.076c-13.822,0-25.648-4.864-35.482-14.593c-9.728-9.831-14.592-21.659-14.592-35.482c0-13.825,4.864-25.601,14.592-35.333
		C318.719,19.95,330.545,15.034,344.368,15.034 M374.317,65.112c0-8.299-2.912-15.36-8.75-21.199
		c-5.842-5.839-12.9-8.758-21.199-8.758c-8.296,0-15.357,2.919-21.197,8.758c-5.939,5.838-8.907,12.899-8.907,21.199
		c0,8.292,2.968,15.357,8.907,21.193c5.84,5.945,12.901,8.909,21.197,8.909h29.949V65.112z"/>
	<polygon fill="#0080B3" points="279.518,153.16 279.518,152.157 280.024,152.157 282.026,151.907 283.034,151.66 284.534,151.16 
		285.534,150.655 287.036,149.653 288.038,148.65 289.043,147.147 289.545,146.143 290.043,144.635 290.29,143.637 290.543,141.633 
		290.543,140.13 290.797,138.124 291.047,137.121 291.342,136.124 291.547,135.618 292.049,134.616 293.053,133.114 294.555,131.61 
		296.059,130.608 297.057,130.104 297.563,129.976 298.565,129.601 299.063,129.601 299.063,129.477 299.567,129.352 
		301.573,129.105 301.573,130.104 302.073,130.104 300.067,130.354 299.063,130.608 297.563,131.111 296.563,131.61 
		295.057,132.614 294.053,133.615 293.053,135.114 292.553,136.124 292.049,137.622 291.793,138.624 291.547,140.627 
		291.547,142.13 291.299,144.137 291.047,145.14 290.711,146.143 290.543,146.645 290.043,147.649 289.043,149.153 287.538,150.655 
		286.038,151.66 285.028,152.157 284.534,152.368 283.528,152.663 282.528,152.909 280.52,153.16 	"/>
	<polygon fill="#0080B3" points="317.944,153.16 315.94,152.909 314.934,152.663 313.93,152.368 313.434,152.157 312.43,151.66 
		310.922,150.655 309.42,149.153 308.42,147.649 307.917,146.645 307.708,146.143 307.424,145.14 307.165,144.137 306.92,142.13 
		306.92,129.105 307.917,129.105 307.917,141.633 308.17,143.637 308.42,144.635 308.915,146.143 309.42,147.147 310.43,148.65 
		311.424,149.653 312.927,150.655 313.93,151.16 315.44,151.66 316.442,151.907 318.444,152.157 319.454,152.157 321.45,151.907 
		322.454,151.66 323.959,151.16 324.957,150.655 326.469,149.653 327.469,148.65 328.471,147.147 328.969,146.143 329.473,144.635 
		329.719,143.637 329.973,141.633 329.973,129.105 330.976,129.105 330.976,142.13 330.723,144.137 330.469,145.14 330.091,146.143 
		329.973,146.645 329.473,147.649 328.471,149.153 326.961,150.655 325.459,151.66 324.457,152.157 323.959,152.368 
		322.954,152.663 321.952,152.909 319.944,153.16 	"/>
	<rect x="336.822" y="129.105" fill="#0080B3" width="1.003" height="24.055"/>
	<polygon fill="#0080B3" points="354.702,153.16 354.702,130.104 343.172,130.104 343.172,129.105 366.729,129.105 366.729,130.104 
		355.704,130.104 355.704,153.16 	"/>
	<polygon fill="#0080B3" points="372.069,153.16 372.069,129.105 396.135,129.105 396.135,130.104 373.079,130.104 373.079,138.624 
		388.616,138.624 388.616,139.627 373.079,139.627 373.079,152.157 396.135,152.157 396.135,153.16 	"/>
	<rect x="12.369" y="141.074" fill="#0080B3" width="258.915" height="1.729"/>
	<path fill="#0080B3" d="M275.011,141.133c0-2.079-1.685-3.767-3.757-3.767c-2.079,0-3.766,1.688-3.766,3.767
		c0,2.073,1.687,3.764,3.766,3.764C273.327,144.897,275.011,143.207,275.011,141.133"/>
	<polygon fill="#0080B3" points="157.36,19.531 157.36,115.187 136.647,115.187 136.647,42.163 	"/>
</g>
</svg>
